Coordinates
version=1
nRows=16
nColumns=36
inDegrees=yes

Units are S.I. units (second, meters, Newtons, ...)
If the header above contains a line with 'inDegrees', this indicates whether rotational values are in degrees (yes) or radians (no).

endheader
time	pelvis_tilt	pelvis_list	pelvis_rotation	pelvis_tx	pelvis_ty	pelvis_tz	hip_flexion_r	hip_adduction_r	hip_rotation_r	knee_angle_r	knee_angle_r_beta	ankle_angle_r	subtalar_angle_r	mtp_angle_r	hip_flexion_l	hip_adduction_l	hip_rotation_l	knee_angle_l	knee_angle_l_beta	ankle_angle_l	subtalar_angle_l	mtp_angle_l	lumbar_extension	lumbar_bending	lumbar_rotation	arm_flex_r	arm_add_r	arm_rot_r	elbow_flex_r	pro_sup_r	arm_flex_l	arm_add_l	arm_rot_l	elbow_flex_l	pro_sup_l
     44.46666670	     -5.40032991	      0.74575928	     -9.80809953	      0.59592647	      0.89129323	      0.77776909	     -5.32593827	      2.61343064	      1.46713129	      8.92453188	      0.15576247	     18.89867335	      1.47605445	     -7.49999987	     33.42122048	     -3.32144785	     -7.49410544	     13.20026430	      0.23038807	      8.77155330	     -1.84745384	     -7.49999987	      3.38372142	      0.31806098	      9.88886503	     16.28594957	    -16.66947735	      5.12430045	     41.89888935	     85.41740219	     -4.48308928	     -7.64493251	      4.48504331	     12.30717351	     82.47781235
     44.48333330	     -5.39386591	      1.17349055	     -9.81156797	      0.59790885	      0.89001935	      0.77381792	     -6.19951247	      1.67801741	      0.84142580	      9.79355580	      0.17092979	     20.01923270	      3.05572245	     -7.49999987	     33.43049073	     -2.74555048	     -7.32002319	     13.11821227	      0.22895600	      9.27757705	     -1.85994333	     -7.49999987	      3.79231308	     -0.14784279	      9.95005980	     14.68963874	    -16.60404759	      3.60747364	     43.70773956	     85.52801206	     -4.60178060	     -7.43673084	      3.48017026	     11.81666522	     82.44931221
     44.50000000	     -5.26902957	      1.69665585	     -9.87862698	      0.59849002	      0.88974559	      0.77051781	     -7.02476681	      0.65360977	      0.96352300	     10.85128124	      0.18939059	     20.49991848	      2.79780988	     -7.49999987	     33.29472230	     -2.05928208	     -7.26938515	     14.07397548	      0.24563721	      9.35484379	     -2.28571157	     -7.49999987	      4.22791846	     -0.74329448	      9.59637694	     13.91485903	    -16.31545495	      3.44670930	     43.85590174	     85.54232587	     -4.97573240	     -7.45679450	      3.40566436	     11.57545386	     82.46247353
     44.51666670	     -5.21233123	      2.23561927	     -9.94616593	      0.59834196	      0.89067128	      0.76932847	     -7.49673665	     -0.40545887	      0.88560991	     12.28058482	      0.21433664	     20.92332079	      2.80881405	     -7.49999987	     33.15135997	     -1.26323568	     -6.69070098	     15.61285158	      0.27249567	      8.39416182	     -3.85456993	     -7.49999987	      4.65526550	     -1.35472304	     10.11994988	     11.90945675	    -16.01495278	      1.10296243	     45.37054575	     84.86537585	     -4.61827823	     -7.35384249	      2.90061068	     10.82983148	     81.61830713
     44.53333330	     -4.88525361	      2.73281323	    -10.06120534	      0.59863270	      0.89231419	      0.77006411	     -8.06675278	     -1.41515584	      1.11993820	     13.89006763	      0.24242741	     20.87013005	      2.33681585	     -7.49999987	     32.66126817	     -0.50879376	     -6.19280583	     17.52628061	      0.30589130	      7.18422123	     -5.13955672	     -7.49999987	      4.65097404	     -2.02740934	     10.16204215	     10.73101919	    -15.62106188	      0.44086383	     45.67314442	     83.15561032	     -4.52322196	     -7.43468957	      3.45369432	     10.70173218	     79.85470609
     44.55000000	     -4.47215150	      3.23511090	    -10.23814923	      0.60024902	      0.89313022	      0.77042764	     -8.41214973	     -2.39385730	      1.68352594	     15.90908328	      0.27766588	     20.18637738	      1.28934280	     -7.49999987	     31.98097303	      0.23233269	     -5.66544081	     19.47218602	      0.33985376	      5.81309692	     -6.35553823	     -7.49999987	      4.47036457	     -2.75685266	     10.64432540	      9.16127209	    -15.02506724	     -1.37390775	     45.73973996	     85.62978786	     -4.08557036	     -7.60786038	      3.98542780	     10.66093533	     81.29472001
     44.56666670	     -4.02159899	      3.68954841	    -10.37679649	      0.60313601	      0.89287687	      0.76905903	     -8.23838447	     -3.31393740	      2.26149131	     18.80915836	      0.32828174	     18.90459219	      0.05145512	     -7.49999987	     31.13704077	      0.97783220	     -5.09838570	     21.23260929	      0.37057894	      4.34222704	     -7.50044580	     -7.49999987	      4.21373696	     -3.47012299	     10.60837920	      8.03149966	    -14.45735296	     -1.37043058	     44.68876508	     85.62258323	     -3.88590813	     -7.68712629	      3.90647928	     10.95655830	     81.25154895
     44.58333330	     -3.56550044	      4.05314117	    -10.38936386	      0.60642116	      0.89370590	      0.76666539	     -7.17618512	     -4.09532818	      2.86643730	     23.17357189	      0.40445513	     16.09210153	     -2.06449743	     -7.49999987	     30.09668882	      1.73359934	     -4.50786624	     22.64018695	      0.39514581	      3.05677754	     -8.60993824	     -7.49999987	      3.86921874	     -4.05155414	     10.39094580	      6.85138034	    -13.79562013	     -1.47750025	     43.22462611	     85.56575669	     -3.70158699	     -7.70359293	      3.92628712	     11.34570302	     81.18824603
     44.60000000	     -3.20193730	      4.30490897	    -10.26517226	      0.60911321	      0.89586979	      0.76452592	     -4.84994374	     -4.66614935	      3.50352239	     29.49102796	      0.51471554	     10.87819789	     -5.36067383	     -7.49999987	     28.93069022	      2.42464584	     -3.99802644	     23.63118800	      0.41244204	      2.21176367	     -9.42914573	     -7.49999987	      3.56093308	     -4.47289882	      9.90652504	      5.79267875	    -13.06879585	     -1.58961805	     41.30360197	     85.36277492	     -3.68588051	     -7.69653130	      4.06558693	     12.07226259	     80.94526557
     44.61666670	     -2.67095744	      4.74721955	    -10.33485901	      0.61044144	      0.90005347	      0.76395594	     -1.70139002	     -5.46117566	      4.13900834	     37.22120462	      0.64963257	      3.98288139	     -8.48607069	     -7.49999987	     27.19102243	      3.24853825	     -3.83448446	     23.69682466	      0.41358761	      1.88931128	     -9.90799350	     -7.49999987	      2.98521719	     -5.10229489	      9.41247874	      4.75487772	    -12.26640829	     -1.54908131	     39.72482987	     85.24679378	     -3.61710937	     -7.72433141	      4.24476727	     12.72127127	     80.78151483
     44.63333330	     -2.42282879	      4.98209589	    -10.39827871	      0.61099302	      0.90574253	      0.76437199	      1.70618009	     -5.83260412	      4.76024910	     44.38253400	      0.77462135	     -4.02065994	    -11.63649925	     -7.49999987	     25.54202824	      3.82986132	     -3.44525829	     23.26315404	      0.40601863	      2.14796088	    -10.37764271	     -7.49999987	      2.68009719	     -5.48009525	      8.89417064	      3.75669994	    -11.39960907	     -1.39512124	     37.34202224	     83.73935891	     -3.44185178	     -7.80525557	      4.79160979	     13.71125801	     79.14951376
     44.65000000	     -1.95245152	      5.18212084	    -10.68150118	      0.61217165	      0.91136605	      0.76450268	      4.46096183	     -6.16977993	      5.27447627	     50.28801374	      0.87769141	    -10.52280494	    -13.27959636	     -7.49999987	     23.41225127	      4.37651591	     -3.17591593	     22.30584768	      0.38931048	      2.55882759	    -10.90188835	     -7.49999987	      2.11599541	     -5.83410770	      8.33646476	      2.92739091	    -10.51103208	     -0.94803649	     34.88193056	     82.64844623	     -3.02856033	     -8.01245390	      5.52424462	     14.84804534	     77.88582498
     44.66666670	     -1.47113428	      5.32155023	    -10.97294575	      0.61448103	      0.91501885	      0.76326110	      6.75844177	     -6.39063637	      5.63638543	     55.02841010	      0.96042694	    -15.10904033	    -14.00456618	     -7.49999987	     21.16655140	      4.91005381	     -2.93034986	     21.14481321	      0.36904661	      2.86556799	    -11.49425005	     -7.49999987	      1.52137106	     -6.09615357	      7.86211808	      1.85519090	     -9.73974598	     -0.70093816	     33.04834791	     82.83124507	     -2.15879803	     -8.29974613	      6.07868036	     15.85322604	     77.92519582
     44.68333330	     -0.92261699	      5.14284869	    -11.10879072	      0.61702792	      0.91782055	      0.76088537	      8.57402993	     -6.22815798	      5.71971571	     58.71272281	      1.02473033	    -18.24814065	    -14.55863340	     -7.49999987	     18.84343876	      5.21847071	     -2.45919659	     20.11073493	      0.35099854	      3.05698109	    -12.24390744	     -7.49999987	      0.82236031	     -5.96156275	      7.26903181	      1.04535331	     -9.09695428	     -0.60026707	     30.63139326	     83.04921455	     -1.15258250	     -8.57767461	      6.91786149	     16.92021915	     77.98423911
     44.70000000	     -0.25612249	      4.89236492	    -11.09482636	      0.61860853	      0.91940017	      0.75889209	     10.08606539	     -5.99184962	      5.57151389	     61.76988956	      1.07808795	    -19.30483432	    -14.84346422	     -7.49999987	     16.46501516	      5.48065308	     -1.95241972	     19.25416578	      0.33604859	      3.29522731	    -12.79298909	     -7.49999987	     -0.07174010	     -5.75905157	      6.57501121	      0.21465857	     -8.59449228	     -0.56323035	     28.57625109	     83.17408972	     -0.05089289	     -8.83060270	      7.57141983	     17.75913307	     77.98000208
     44.71666670	      0.57624403	      4.40404458	    -10.96242459	      0.61732900	      0.92315539	      0.75827122	     11.20331644	     -5.44530572	      5.30473958	     63.99253046	      1.11688035	    -18.46279319	    -15.13784918	     -7.49999987	     13.94951205	      5.47134616	     -1.43818738	     18.58435056	      0.32435811	      3.53271221	    -13.28092535	     -7.49999987	     -1.25677129	     -5.32717556	      5.73301489	     -0.21290113	     -8.15341335	     -0.60552163	     25.91759810	     83.38214567	      1.08054673	     -9.06146877	      8.57096504	     18.37080261	     77.98395284
